<svg xmlns="http://www.w3.org/2000/svg" xmlns:xlink="http://www.w3.org/1999/xlink" width="27" height="32" viewBox="0 0 27 32"><defs><clipPath id="b"><rect width="27" height="32"/></clipPath></defs><g id="a" clip-path="url(#b)"><g transform="translate(-203.462 640.799)"><path d="M13.339,31.6a8.253,8.253,0,0,1-4.983-1.632,7.5,7.5,0,0,1-2.794-4.1C2.088,23.24.148,19.495.027,17.153-.161,13.515.7,10.522,1.577,9.28l1.284,2.633a.081.081,0,0,1,.005-.019A25.451,25.451,0,0,1,4.339,8.507,19.875,19.875,0,0,1,8.952,2.5a.082.082,0,0,1,.041-.012.086.086,0,0,1,.061.029c.363.364.358,4.057.358,4.095L13.72,0a.128.128,0,0,1,.019.023A32.1,32.1,0,0,1,16.06,3.478a16.236,16.236,0,0,1,1.327,3.136L19.823,2.5s.006.005.012.013a27,27,0,0,1,3.058,5,9.9,9.9,0,0,1,.631,5.086L25.014,11a9.983,9.983,0,0,1,1.654,5.787c.074,3.055-2.23,6.866-5.6,9.266A7.945,7.945,0,0,1,13.339,31.6Zm-3.5-19A4.5,4.5,0,0,0,8.808,21.48a4.955,4.955,0,0,0-.47,2.119,5,5,0,1,0,9.53-2.119,4.5,4.5,0,1,0-4.53-7.21A4.483,4.483,0,0,0,9.839,12.6Z" transform="translate(203.661 -640.599)"/><path d="M1.05-.169c.72.031.765,1.918-.054,1.9S.33-.2,1.05-.169Z" transform="translate(215.145 -620.244) rotate(19)"/><path d="M1.05-.169c.72.031.765,1.918-.054,1.9S.33-.2,1.05-.169Z" transform="translate(217.02 -619.536) rotate(-21)"/><circle cx="2" cy="2" r="2" transform="translate(211.5 -626)"/><circle cx="2" cy="2" r="2" transform="translate(218.5 -626)"/><path d="M1.153.52c.837,1.552,3.154-.3,3.154.072S2.443,2.139,1.124,2.181s-2.21-.7-2.08-1.467S.316-1.031,1.153.52Z" transform="translate(218.511 -614.511) rotate(176)"/></g></g></svg>