<svg xmlns="http://www.w3.org/2000/svg" xmlns:xlink="http://www.w3.org/1999/xlink" width="109" height="16" viewBox="0 0 109 16"><defs><clipPath id="b"><rect width="109" height="16"/></clipPath></defs><g id="a" clip-path="url(#b)"><path d="M7.22-14a3.554,3.554,0,0,1,2.66,1,3.691,3.691,0,0,1,.98,2.7q0,.24-.04.72A4.9,4.9,0,0,1,9.3-6.46,4.461,4.461,0,0,1,6.16-5.28H4.34q-.08,0-.12.1L3.62-.24a.325.325,0,0,1-.09.17A.231.231,0,0,1,3.36,0H.6A.2.2,0,0,1,.44-.07.19.19,0,0,1,.4-.24L2.06-13.76a.325.325,0,0,1,.09-.17A.231.231,0,0,1,2.32-14ZM5.94-7.9a1.565,1.565,0,0,0,1.2-.52,1.983,1.983,0,0,0,.48-1.4,1.346,1.346,0,0,0-.35-.98,1.238,1.238,0,0,0-.93-.36H5.06q-.08,0-.12.1L4.58-8q-.04.1.08.1ZM16.1,0a.223.223,0,0,1-.24-.2L14.7-5.5q-.04-.08-.1-.08h-.78a.1.1,0,0,0-.07.03.1.1,0,0,0-.03.07L13.08-.24a.325.325,0,0,1-.09.17.231.231,0,0,1-.17.07H10.06A.2.2,0,0,1,9.9-.07a.19.19,0,0,1-.04-.17l1.66-13.52a.325.325,0,0,1,.09-.17.231.231,0,0,1,.17-.07h4.96a3.454,3.454,0,0,1,2.6.99,3.645,3.645,0,0,1,.96,2.65,4.578,4.578,0,0,1-.04.7,4.823,4.823,0,0,1-.78,2.19,4.08,4.08,0,0,1-1.64,1.43q-.06.02-.06.12L19.22-.28v.06q0,.22-.24.22ZM14.52-11.16q-.08,0-.12.1l-.34,2.84q-.04.1.08.1H15.5a1.475,1.475,0,0,0,1.14-.48,1.85,1.85,0,0,0,.44-1.3,1.265,1.265,0,0,0-.33-.92,1.157,1.157,0,0,0-.87-.34ZM19.68,0a.2.2,0,0,1-.16-.07.19.19,0,0,1-.04-.17l1.66-13.52a.325.325,0,0,1,.09-.17A.231.231,0,0,1,21.4-14h2.76a.2.2,0,0,1,.16.07.19.19,0,0,1,.04.17L22.7-.24a.325.325,0,0,1-.09.17.231.231,0,0,1-.17.07ZM32.5-13.84a.287.287,0,0,1,.28-.16h2.74a.2.2,0,0,1,.16.07.19.19,0,0,1,.04.17L34.06-.24a.325.325,0,0,1-.09.17A.231.231,0,0,1,33.8,0H31.04a.2.2,0,0,1-.16-.07.19.19,0,0,1-.04-.17l1.02-8.3q.02-.08-.02-.09t-.08.05l-1.84,2.6a.33.33,0,0,1-.3.16h-.54a.233.233,0,0,1-.24-.16l-1.2-2.6q-.04-.06-.08-.05t-.04.09L26.5-.24a.325.325,0,0,1-.09.17.231.231,0,0,1-.17.07H23.48a.2.2,0,0,1-.16-.07.19.19,0,0,1-.04-.17l1.66-13.52a.325.325,0,0,1,.09-.17A.231.231,0,0,1,25.2-14h2.74a.233.233,0,0,1,.24.16l1.66,3.64q.04.12.12,0ZM42,0a.194.194,0,0,1-.22-.22L41.6-1.98q-.02-.08-.08-.08H38.24a.161.161,0,0,0-.12.08l-.6,1.76a.267.267,0,0,1-.28.22H34.4q-.24,0-.16-.26L39.36-13.8a.3.3,0,0,1,.3-.2h3.4a.208.208,0,0,1,.24.2L45.12-.26v.04q0,.22-.24.22ZM39.04-4.72q-.02.1.1.1H41.2a.106.106,0,0,0,.12-.12L40.84-9.7q0-.08-.04-.08t-.08.08ZM54.44-14q.22,0,.22.24l-.3,2.38a.325.325,0,0,1-.09.17.231.231,0,0,1-.17.07H51.18a.088.088,0,0,0-.1.1L49.76-.24a.3.3,0,0,1-.1.17.266.266,0,0,1-.18.07H46.74a.2.2,0,0,1-.16-.07.19.19,0,0,1-.04-.17l1.32-10.8q0-.1-.08-.1h-2.8a.2.2,0,0,1-.16-.07.19.19,0,0,1-.04-.17l.28-2.38a.3.3,0,0,1,.1-.17.266.266,0,0,1,.18-.07Zm8.7,2.6a.325.325,0,0,1-.09.17.231.231,0,0,1-.17.07h-5q-.08,0-.12.1l-.3,2.5q0,.1.08.1h3.02q.22,0,.22.24l-.3,2.36a.325.325,0,0,1-.09.17.231.231,0,0,1-.17.07H57.2q-.08,0-.12.1l-.32,2.58a.088.088,0,0,0,.1.1h5a.2.2,0,0,1,.16.07.19.19,0,0,1,.04.17L61.78-.24a.3.3,0,0,1-.1.17A.266.266,0,0,1,61.5,0H53.42a.2.2,0,0,1-.16-.07.19.19,0,0,1-.04-.17l1.66-13.52a.325.325,0,0,1,.09-.17.231.231,0,0,1,.17-.07h8.08q.22,0,.22.24Z" transform="translate(45 15)" fill="#f01947"/><path d="M5,.16A4.151,4.151,0,0,1,2.1-.82,3.318,3.318,0,0,1,1.02-3.4v-.54a.177.177,0,0,1,.2-.2h.62a.177.177,0,0,1,.2.2v.48a2.5,2.5,0,0,0,.81,1.94,3.093,3.093,0,0,0,2.17.74,2.911,2.911,0,0,0,2.05-.69,2.392,2.392,0,0,0,.75-1.85,2.4,2.4,0,0,0-.34-1.29,3.542,3.542,0,0,0-.99-1.01,18.029,18.029,0,0,0-1.85-1.1A19.584,19.584,0,0,1,2.68-7.91a4.025,4.025,0,0,1-1.1-1.18,3.235,3.235,0,0,1-.42-1.71,3.151,3.151,0,0,1,.99-2.47,3.845,3.845,0,0,1,2.67-.89,4.051,4.051,0,0,1,2.88.99,3.428,3.428,0,0,1,1.06,2.63v.48a.177.177,0,0,1-.2.2H7.9a.177.177,0,0,1-.2-.2v-.44a2.6,2.6,0,0,0-.78-1.98,2.954,2.954,0,0,0-2.12-.74,2.727,2.727,0,0,0-1.91.63A2.3,2.3,0,0,0,2.2-10.8a2.312,2.312,0,0,0,.31,1.24,3.041,3.041,0,0,0,.9.9Q4-8.26,5.22-7.6A21.51,21.51,0,0,1,7.31-6.32,4.119,4.119,0,0,1,8.47-5.09a3.213,3.213,0,0,1,.41,1.67A3.388,3.388,0,0,1,7.83-.82,3.982,3.982,0,0,1,5,.16ZM17.12-13.26a.177.177,0,0,1-.2.2H10.78a.071.071,0,0,0-.08.08v5.42a.071.071,0,0,0,.08.08h4.2a.177.177,0,0,1,.2.2v.54a.177.177,0,0,1-.2.2h-4.2a.071.071,0,0,0-.08.08v5.44a.071.071,0,0,0,.08.08h6.14a.177.177,0,0,1,.2.2V-.2a.177.177,0,0,1-.2.2H9.84a.177.177,0,0,1-.2-.2V-13.8a.177.177,0,0,1,.2-.2h7.08a.177.177,0,0,1,.2.2ZM18.22,0a.177.177,0,0,1-.2-.2V-13.8a.177.177,0,0,1,.2-.2h.66a.177.177,0,0,1,.2.2V-1.02a.071.071,0,0,0,.08.08h5.92a.177.177,0,0,1,.2.2V-.2a.177.177,0,0,1-.2.2ZM33.04-13.26a.177.177,0,0,1-.2.2H26.72a.071.071,0,0,0-.08.08v5.42a.071.071,0,0,0,.08.08H30.9a.177.177,0,0,1,.2.2v.54a.177.177,0,0,1-.2.2H26.72a.071.071,0,0,0-.08.08V-.2a.177.177,0,0,1-.2.2h-.66a.177.177,0,0,1-.2-.2V-13.8a.177.177,0,0,1,.2-.2h7.06a.177.177,0,0,1,.2.2ZM33.48,0a.177.177,0,0,1-.2-.2V-13.8a.177.177,0,0,1,.2-.2h.66a.177.177,0,0,1,.2.2V-.2a.177.177,0,0,1-.2.2Zm5.66.16a4.151,4.151,0,0,1-2.9-.98A3.318,3.318,0,0,1,35.16-3.4v-.54a.177.177,0,0,1,.2-.2h.62a.177.177,0,0,1,.2.2v.48a2.5,2.5,0,0,0,.81,1.94,3.093,3.093,0,0,0,2.17.74,2.911,2.911,0,0,0,2.05-.69,2.392,2.392,0,0,0,.75-1.85,2.4,2.4,0,0,0-.34-1.29,3.542,3.542,0,0,0-.99-1.01,18.029,18.029,0,0,0-1.85-1.1,19.584,19.584,0,0,1-1.96-1.19,4.025,4.025,0,0,1-1.1-1.18,3.235,3.235,0,0,1-.42-1.71,3.151,3.151,0,0,1,.99-2.47,3.845,3.845,0,0,1,2.67-.89,4.051,4.051,0,0,1,2.88.99,3.428,3.428,0,0,1,1.06,2.63v.48a.177.177,0,0,1-.2.2h-.66a.177.177,0,0,1-.2-.2v-.44a2.6,2.6,0,0,0-.78-1.98,2.954,2.954,0,0,0-2.12-.74,2.727,2.727,0,0,0-1.91.63,2.3,2.3,0,0,0-.69,1.79,2.312,2.312,0,0,0,.31,1.24,3.041,3.041,0,0,0,.9.9q.59.4,1.81,1.06a21.51,21.51,0,0,1,2.09,1.28,4.119,4.119,0,0,1,1.16,1.23,3.213,3.213,0,0,1,.41,1.67,3.388,3.388,0,0,1-1.05,2.6A3.982,3.982,0,0,1,39.14.16ZM50.48-13.8a.177.177,0,0,1,.2-.2h.66a.177.177,0,0,1,.2.2V-.2a.177.177,0,0,1-.2.2h-.66a.177.177,0,0,1-.2-.2V-6.46a.071.071,0,0,0-.08-.08H45a.071.071,0,0,0-.08.08V-.2a.177.177,0,0,1-.2.2h-.66a.177.177,0,0,1-.2-.2V-13.8a.177.177,0,0,1,.2-.2h.66a.177.177,0,0,1,.2.2v6.24a.071.071,0,0,0,.08.08h5.4a.071.071,0,0,0,.08-.08Z" transform="translate(0 15)"/></g></svg>